<svg width="24" height="24" viewBox="0 0 24 24" fill="none" xmlns="http://www.w3.org/2000/svg">
<path d="M5.16016 6.15992C5.62116 5.61992 6.14616 5.13892 6.72216 4.72192" stroke="#090B09" stroke-width="1.5" stroke-linecap="round" stroke-linejoin="round"/>
<path d="M17.0004 19.4819C15.5704 20.4399 13.8514 20.9999 12.0004 20.9999C11.0884 20.9999 10.2094 20.8619 9.38037 20.6099" stroke="#090B09" stroke-width="1.5" stroke-linecap="round" stroke-linejoin="round"/>
<path d="M12 16V8" stroke="#090B09" stroke-width="1.5" stroke-linecap="round" stroke-linejoin="round"/>
<path d="M15 13L12 16L9 13" stroke="#090B09" stroke-width="1.5" stroke-linecap="round" stroke-linejoin="round"/>
<path d="M6.34944 19C5.06844 17.965 4.08444 16.583 3.52344 15" stroke="#090B09" stroke-width="1.5" stroke-linecap="round" stroke-linejoin="round"/>
<path d="M3.52322 9C3.19022 9.94 3.00022 10.946 3.00022 12" stroke="#090B09" stroke-width="1.5" stroke-linecap="round" stroke-linejoin="round"/>
<path d="M19.463 17C20.427 15.569 21 13.855 21 12C21 7.029 16.971 3 12 3" stroke="#090B09" stroke-width="1.5" stroke-linecap="round" stroke-linejoin="round"/>
</svg>
